<?xml version="1.0" encoding="UTF-8"?>
<svg width="482.88" height="63.632" version="1.1" viewBox="0 0 482.88 63.632" xmlns="http://www.w3.org/2000/svg">
 <g transform="translate(-5.5925 -40.689)">
  <text x="77.61866" y="78.061569" font-family="'Berlin Sans FB'" font-size="52.861px" letter-spacing="-10.516px" stroke-width="2.6431" style="line-height:0" xml:space="preserve"><tspan x="77.61866" y="78.061569" fill="#ececec" font-family="Ailerons" letter-spacing="-10.516px" stroke-width="2.6431" style="line-height:0">Games...Games...Games</tspan></text>
  <text x="305.2121" y="103.88744" font-family="'Berlin Sans FB'" font-size="24.044px" letter-spacing=".27px" stroke-width="1.2022" style="line-height:0" xml:space="preserve"><tspan x="305.2121" y="103.88744" fill="#ececec" font-family="'Basic Sans SF'" letter-spacing=".27px" stroke-width="1.2022" style="line-height:0">Games database</tspan></text>
  <path d="m49.814 69.176a1.2039 7.8344 54.928 0 0-7.5762 4.3594 1.2039 7.8344 54.928 0 0-3.8535 3.3066c1.7459-0.53452 3.4188-1.2206 4.9785-2.1309 2.4376-1.4225 4.5281-3.3575 6.4512-5.5352z" fill="#999" stroke-linecap="round" stroke-width="2.3353" style="paint-order:stroke fill markers"/>
  <path d="m25.059 57.891a1.7425 7.5133 59.987 0 0 7.5234-2.6113 1.7425 7.5133 59.987 0 0 5.3516-4.8691c-2.3296 1.0168-4.5748 2.1688-6.7363 3.457-2.1183 1.2102-4.1647 2.5504-6.1387 4.0234z" fill="#e6e6e6" stroke-linecap="round" stroke-width="2.3353" style="paint-order:stroke fill markers"/>
  <g fill="#b3b3b3" stroke-linecap="round">
   <path d="m60.459 45.176c-8.2828 0.49363-15.764 2.2831-22.525 5.2344a1.7425 7.5133 59.987 0 1-5.3516 4.8691 1.7425 7.5133 59.987 0 1-7.5234 2.6113c-5.9712 4.456-11.271 10.136-15.822 17.178l11.385 9.5898c0.711-3.5548 3.2919-5.8139 8.5234-6.0723 3.176-0.3776 6.3125-0.84778 9.2402-1.7441a1.2039 7.8344 54.928 0 1 3.8535-3.3066 1.2039 7.8344 54.928 0 1 7.5762-4.3594c1.371-1.5525 2.6596-3.2238 3.916-4.9375 2.7984-4.4277 6.0338-5.5632 9.4785-4.4336z" stroke-width="2.3353" style="paint-order:stroke fill markers"/>
   <path d="m71.746 47.367a13.816 7.5333 29.928 0 1 8.2149 13.422 13.816 7.5333 29.928 0 1-15.732-0.36416 13.816 7.5333 29.928 0 1-8.2149-13.422 13.816 7.5333 29.928 0 1 15.732 0.36415z" stroke-width="2.116" style="paint-order:stroke fill markers"/>
   <path d="m5.5933 85.973a13.816 7.5333 89.538 0 0 7.6445 13.754 13.816 7.5333 89.538 0 0 7.4216-13.876 13.816 7.5333 89.538 0 0-7.6444-13.754 13.816 7.5333 89.538 0 0-7.4216 13.876z" stroke-width="2.116" style="paint-order:stroke fill markers"/>
  </g>
  <g fill="#4d4d4d">
   <circle transform="rotate(-32.686)" cx="-22.685" cy="67.66" r="1.3997" style="paint-order:stroke fill markers"/>
   <circle transform="rotate(-32.686)" cx="-22.006" cy="71.051" r="1.3997" style="paint-order:stroke fill markers"/>
   <circle transform="rotate(-32.686)" cx="-22.006" cy="74.443" r="1.3997" style="paint-order:stroke fill markers"/>
   <circle transform="rotate(-32.686)" cx="-22.685" cy="77.834" r="1.3997" style="paint-order:stroke fill markers"/>
   <circle transform="matrix(-.88419 .46713 .46713 .88419 0 0)" cx="-22.535" cy="67.667" r="1.3997" style="paint-order:stroke fill markers"/>
   <circle transform="matrix(-.88419 .46713 .46713 .88419 0 0)" cx="-21.856" cy="71.058" r="1.3997" style="paint-order:stroke fill markers"/>
   <circle transform="matrix(-.88419 .46713 .46713 .88419 0 0)" cx="-21.856" cy="74.449" r="1.3997" style="paint-order:stroke fill markers"/>
   <circle transform="matrix(-.88419 .46713 .46713 .88419 0 0)" cx="-22.535" cy="77.84" r="1.3997" style="paint-order:stroke fill markers"/>
   <circle transform="matrix(-.88419 .46713 .46713 .88419 0 0)" cx="-2.8189" cy="68.5" r="1.3997" style="paint-order:stroke fill markers"/>
   <circle transform="matrix(-.88419 .46713 .46713 .88419 0 0)" cx="-2.8975" cy="72.543" r="1.3997" style="paint-order:stroke fill markers"/>
   <circle transform="matrix(-.88419 .46713 .46713 .88419 0 0)" cx="-3.0681" cy="76.582" r="1.3997" style="paint-order:stroke fill markers"/>
   <ellipse transform="matrix(-.87308 .48758 .42082 .90714 0 0)" cx="-7.6053" cy="82.872" rx="3.1183" ry="1.4046" style="paint-order:stroke fill markers"/>
   <circle transform="rotate(-32.686)" cx="-18.443" cy="71.202" r="1.3997" style="paint-order:stroke fill markers"/>
   <circle transform="rotate(-32.686)" cx="-18.443" cy="74.593" r="1.3997" style="paint-order:stroke fill markers"/>
   <circle transform="matrix(-.88419 .46713 .46713 .88419 0 0)" cx="-18.322" cy="71.207" r="1.3997" style="paint-order:stroke fill markers"/>
   <circle transform="matrix(-.88419 .46713 .46713 .88419 0 0)" cx="-18.322" cy="74.598" r="1.3997" style="paint-order:stroke fill markers"/>
  </g>
  <g stroke-linecap="round">
   <path d="m57.395 45.548a13.816 7.5333 29.928 0 0-1.3802 1.4547 13.816 7.5333 29.928 0 0-0.5294 1.7202 13.816 7.5333 29.928 0 1 14.99 1.2829 13.816 7.5333 29.928 0 1 8.7584 11.707 13.816 7.5333 29.928 0 0 0.72835-0.92434 13.816 7.5333 29.928 0 0-8.2153-13.421 13.816 7.5333 29.928 0 0-14.351-1.8192z" fill="#999" stroke-width="2.116" style="paint-order:stroke fill markers"/>
   <path d="m15.184 99.241a13.816 7.5333 89.538 0 1-1.9454 0.48606 13.816 7.5333 89.538 0 1-1.7581-0.38525 13.816 7.5333 89.538 0 0 6.2566-13.682 13.816 7.5333 89.538 0 0-5.8845-13.384 13.816 7.5333 89.538 0 1 1.1631-0.17945 13.816 7.5333 89.538 0 1 7.6441 13.755 13.816 7.5333 89.538 0 1-5.4757 13.39z" fill="#999" stroke-width="2.116" style="paint-order:stroke fill markers"/>
   <path d="m6.7646 82.196a2.6312 8.7153 10.173 0 0 1.0645 9.0157 2.6312 8.7153 10.173 0 0 4.1256-8.1438 2.6312 8.7153 10.173 0 0-1.0645-9.0157 2.6312 8.7153 10.173 0 0-4.1256 8.1438z" fill="#e6e6e6" stroke-width=".99323" style="paint-order:stroke fill markers"/>
   <path d="m60.991 51.621a5.0884 1.5615 54.466 0 0-4.1371-2.9733 5.0884 1.5615 54.466 0 0 1.8986 5.2056 5.0884 1.5615 54.466 0 0 4.1371 2.9733 5.0884 1.5615 54.466 0 0-1.8986-5.2056z" fill="#e6e6e6" stroke-width=".58464" style="paint-order:stroke fill markers"/>
  </g>
 </g>
</svg>
